<svg xmlns="http://www.w3.org/2000/svg" viewBox="0 0 100.94 154.15"><defs><style>.cls-1{fill:#1d1d1b;}</style></defs><title>Fichier 1</title><g id="Calque_2" data-name="Calque 2"><g id="OBJECTS"><path class="cls-1" d="M17.15,99.64c0-3.73.16-6.6.67-7.17,1.47,1.8,2.38,24.35,2.55,28.79,2.83,1.81,6.19,5.46,10.68,9,4.8-13,9.29-31,10.82-31.36.69,1.3-4.17,19.27-9.5,32.38A37.61,37.61,0,0,0,49,138.57c17.52,2.84,43.72-4.4,46.73-5.26-3.26,1.58-29.31,10.1-46.84,7.26C28.11,137.2,20.45,120,16.24,123c-3,4,6.69,21.79,26.84,27.79,17.1,5.09,39.36,4.36,50.87-1.81,4-2.6,6.39-6,6.5-10.29-.63-7-4.9-15.16-2.69-21.48,6-21,3.31-40-6.47-52.26-9.57-12-25.82-17.73-42.85-18.65a5.62,5.62,0,0,1,.89,2.4c-.78.2-9.73-12.16-9.62-14.54s-.23-9,.11-10.21c.24-.88,2.83-6.86,4-11.4a6.65,6.65,0,0,0-.44-3C41.64,6,30.66,15.63,29.64,15.4s-11.78-2.26-12.91-3.84S7.56-.33,6.77,0s.79,13.47,0,14-5.66,7.24-6,9.73S.32,36.57,1.45,40.2s2.94,8.15,1,14.49S-6.49,74.16,17.15,99.64Z"/><path class="cls-1" d="M14.89,130.55c-2.17,1.44-4,3-3.28,5.65a4.34,4.34,0,0,0,2.58,5s2.74,2.6,9.57,1.16A38.53,38.53,0,0,1,14.89,130.55Z"/></g></g></svg>